# xmcd
# 
# Track frame offsets:
#     182
#     12495
#     26025
#     39057
#     48455
#     63800
#     75695
#     92040
#     107527
#     119890
#     133067
# 
# Disc length: 1965
# 
# Revision: 6
# Processed by: cddbd v1.5.2PL0 Copyright (c) Steve Scherf et al.
# Submitted via: fre:ac v1.0.31
# 
DISCID=8c07ab0b
DTITLE=Leo Kottke - Time Step
DYEAR=1983
DGENRE=Folk
TTITLE0=Running All Night Long
TTITLE1=The Bungle Party
TTITLE2=Rings
TTITLE3=Mr Fonebone
TTITLE4=Julie's House
TTITLE5=Memories Are Made of This
TTITLE6=Saginaw, Michigan
TTITLE7=I'll Break out Again Tonight
TTITLE8=The Wrong Track
TTITLE9=Starving
TTITLE10=Here Comes That Rainbow Again
EXTD=
EXTT0=
EXTT1=
EXTT2=
EXTT3=
EXTT4=
EXTT5=
EXTT6=
EXTT7=
EXTT8=
EXTT9=
EXTT10=
PLAYORDER=
